<?xml version="1.0" encoding="UTF-8" standalone="no"?>
<!DOCTYPE svg PUBLIC "-//W3C//DTD SVG 1.1//EN" "http://www.w3.org/Graphics/SVG/1.1/DTD/svg11.dtd">
<!--Generated by Intaglio, www.PurgatoryDesign.com-->
<svg version="1.1" viewBox="3,1,224,224" width="224" height="224" xmlns="http://www.w3.org/2000/svg" xmlns:xlink="http://www.w3.org/1999/xlink"><g><path fill="#fdfdfd" stroke="#000100" stroke-width="2" d="M4.6686,11.8721 C4.6686,6.97216,8.64076,3,13.5407,3 L91.0465,3 C95.9464,3,99.9186,6.97216,99.9186,11.8721 L99.9186,187.628 C99.9186,192.528,95.9464,196.5,91.0465,196.5 L13.5407,196.5 C8.64076,196.5,4.6686,192.528,4.6686,187.628 Z"/><path fill="#fdfdfd" stroke="#000100" stroke-width="2" d="M14.468,20.5 L90.1192,20.5 L90.1192,164.5 L14.468,164.5 L14.468,20.5 Z"/><path fill="#fdfdfd" stroke="#000100" stroke-width="2" d="M60.2936,180.5 C60.2936,184.918,56.7119,188.5,52.2936,188.5 C47.8753,188.5,44.2936,184.918,44.2936,180.5 C44.2936,176.082,47.8753,172.5,52.2936,172.5 C56.7119,172.5,60.2936,176.082,60.2936,180.5 Z"/><path fill="#fdfdfd" stroke="#000100" stroke-width="2" d="M44.2936,11.5 L60.2936,11.5"/><path fill="#fdfdfd" stroke="#000100" stroke-width="2" d="M216.172,128.625 C221.071,128.625,225.044,132.597,225.044,137.497 L225.044,215.003 C225.044,219.903,221.071,223.875,216.172,223.875 L40.4157,223.875 C35.5158,223.875,31.5436,219.903,31.5436,215.003 L31.5436,137.497 C31.5436,132.597,35.5158,128.625,40.4157,128.625 Z"/><path fill="#fdfdfd" stroke="#000100" stroke-width="2" d="M207.544,138.424 L207.544,214.076 L63.5436,214.076 L63.5436,138.424 L207.544,138.424 Z"/><path fill="#fdfdfd" stroke="#000100" stroke-width="2" d="M47.5436,184.25 C43.1253,184.25,39.5436,180.668,39.5436,176.25 C39.5436,171.832,43.1253,168.25,47.5436,168.25 C51.9619,168.25,55.5436,171.832,55.5436,176.25 C55.5436,180.668,51.9619,184.25,47.5436,184.25 Z"/><path fill="#fdfdfd" stroke="#000100" stroke-width="2" d="M216.544,168.25 L216.544,184.25"/><path fill="none" stroke="#000100" stroke-width="4" stroke-linecap="round" d="M127,25.5776 C186.879,25.5776,202.5,76.5862,202.5,103.776"/><path fill="none" stroke="#000100" stroke-width="4" stroke-linecap="round" d="M202.5,103.776 L215.453,70.4774"/><path fill="none" stroke="#000100" stroke-width="4" stroke-linecap="round" d="M202.5,103.776 L179.215,76.6764"/></g></svg>
